<svg width="20" height="21" viewBox="0 0 20 21" fill="none" xmlns="http://www.w3.org/2000/svg">
<path d="M0.58 20.8C0.26 20.8 0 20.54 0 20.22V13.18C0 12.86 0.26 12.6 0.58 12.6H2.34V4.9V4.88C2.34 4.78 2.38 4.68 2.44 4.58V4.56L4.78 1.06C4.9 0.9 5.08 0.8 5.28 0.8H15.9C16.1 0.8 16.28 0.879999 16.4 1.06L18.74 4.56V4.58C18.8 4.66 18.84 4.78 18.84 4.88V4.9V12.7C19.58 12.96 20 13.66 20 14.36C20 14.72 19.9 15.08 19.66 15.4L16.84 19.16C16.08 20.18 14.84 20.8 13.56 20.8H8.24C6.38 20.8 5 20.42 4.34 20.22L4.26 20.2C3.92 20.56 3.46 20.8 2.94 20.8H0.58ZM1.18 19.62H2.92C3.26 19.62 3.52 19.36 3.52 19.04V14.36C3.52 14.02 3.26 13.76 2.92 13.76H1.18V19.62ZM8.24 19.62H13.56C14.48 19.62 15.36 19.18 15.9 18.46L18.72 14.7C18.8 14.6 18.84 14.48 18.84 14.36C18.84 14.06 18.6 13.78 18.24 13.76C18.08 13.76 17.94 13.84 17.82 13.96L15.24 16.72C14.9 17.08 14.44 17.28 13.96 17.28H9.34C9.02 17.28 8.76 17.02 8.76 16.7C8.76 16.38 9.02 16.12 9.34 16.12H13.56C13.88 16.12 14.14 15.84 14.14 15.52C14.14 15.2 13.88 14.94 13.56 14.94H10.78C10.1 14.94 9.46 14.7 8.96 14.26C8.42 13.78 7.72 13.52 7.02 13.52C6.34 13.52 5.64 13.78 5.1 14.26L4.68 14.62C4.68 19.02 4.68 19.06 4.68 19.1C5.8 19.42 6.88 19.62 8.24 19.62ZM15.24 15L16.96 13.16C17.16 12.94 17.4 12.78 17.66 12.7V5.48H12.94V9.62C12.94 9.96 12.64 10.2 12.34 10.2C12.24 10.2 12.12 10.18 12.02 10.12L10.58 9.16L9.16 10.12C9.06 10.18 8.94 10.2 8.84 10.2C8.52 10.2 8.24 9.96 8.24 9.62V5.48H3.52V12.7C3.86 12.82 4.16 13.04 4.36 13.34C5.12 12.68 6.08 12.36 7.04 12.36C8 12.36 8.96 12.7 9.74 13.38C10.02 13.62 10.4 13.76 10.78 13.76H13.56C14.34 13.76 15.02 14.28 15.24 15ZM4.02 4.3H8.24V1.96H5.58L4.02 4.3ZM9.42 8.52L10.26 7.96C10.36 7.9 10.48 7.86 10.6 7.86C10.7 7.86 10.82 7.9 10.92 7.96L11.76 8.52V5.48H9.42V8.52ZM9.42 4.3H11.76V1.96H9.42V4.3ZM12.94 4.3H17.16L15.6 1.96H12.94V4.3Z" fill="#111111"/>
</svg>
