<svg width="40" height="26" viewBox="0 0 40 26" fill="none" xmlns="http://www.w3.org/2000/svg">
<rect width="40" height="26" rx="4" fill="white"/>
<path d="M36.5157 26H3.48432C1.5331 26 0 24.5104 0 22.6146V3.38542C0 1.48958 1.5331 0 3.48432 0H36.5157C38.3275 0 40 1.48958 40 3.38542V22.6146C40 24.5104 38.3275 26 36.5157 26ZM3.48432 0.270833C1.67247 0.270833 0.278746 1.625 0.278746 3.38542V22.6146C0.278746 24.375 1.67247 25.7292 3.48432 25.7292H36.5157C38.3275 25.7292 39.7213 24.375 39.7213 22.6146V3.38542C39.7213 1.625 38.3275 0.270833 36.5157 0.270833H3.48432Z" fill="#C4C4C4"/>
<path d="M17.5963 13.7532H4V18.2853H17.5963V13.7532Z" fill="#81BD41"/>
<path d="M17.5963 7.71021H4V12.2423H17.5963V7.71021Z" fill="#00A0DD"/>
<path fill-rule="evenodd" clip-rule="evenodd" d="M33.5748 10.6089C33.7821 10.6503 34.045 10.6644 34.1999 10.6644H34.1991C34.5519 10.6644 34.9728 10.4845 34.9728 9.62626C34.9728 9.1858 34.8969 8.60139 34.2398 8.60139H34.2351C34.2179 8.60235 34.197 8.60295 34.173 8.60364C34.0601 8.60689 33.8773 8.61214 33.6812 8.66633C33.6749 8.66812 33.6689 8.67017 33.663 8.67218C33.6586 8.67368 33.6542 8.67516 33.6499 8.6765C33.6264 8.68354 33.6029 8.69058 33.5795 8.69919L33.5685 8.70623C33.5621 8.70858 33.5556 8.7107 33.5492 8.71282C33.5385 8.71634 33.5279 8.71982 33.5177 8.72422L33.4496 8.75473L33.4832 8.82123C33.4895 8.83375 33.5145 8.91198 33.5145 9.04263V10.5971L33.5748 10.6089ZM34.1773 7.71014C34.1837 7.70997 34.1904 7.70978 34.1967 7.71031H34.1975C35.2951 7.73378 36 8.47231 36 9.63799C36 10.8037 35.2717 11.5563 34.1443 11.5563C33.8064 11.5563 33.3182 11.489 33.0561 11.3607C32.9834 11.3738 32.9057 11.3871 32.8272 11.4005C32.7137 11.4198 32.5987 11.4394 32.4952 11.4593H27.3082C27.3528 11.1776 27.3943 10.8999 27.4256 10.6863H29.1115C29.2477 10.6863 29.3306 10.7129 29.3431 10.7192L29.4135 10.7544V9.63252C29.4135 8.96205 29.1444 8.52472 28.632 8.52472H27.6548C27.6858 8.31156 27.7102 8.14591 27.7381 7.95619C27.7476 7.89176 27.7576 7.82456 27.7683 7.75177H28.7509C29.7585 7.75177 30.4525 8.39642 30.4767 9.57071H30.4791V10.6863H32.4287L32.4631 10.6159C32.4701 10.6034 32.4959 10.5518 32.4959 10.4149V8.81419V8.81262C32.4998 8.57479 32.5663 8.37217 32.69 8.21101C32.9161 7.87851 33.5513 7.71031 34.1686 7.71031C34.1714 7.71031 34.1743 7.71023 34.1773 7.71014ZM25.149 11.9263H25.1013L25.0997 11.9256H23.6148V11.924L21.8154 11.9209H20.8336C19.8267 11.9209 19.132 11.3599 19.1085 10.1856L19.1062 9.70449V9.66146H19.1085C19.132 8.48717 19.8267 7.81201 20.8336 7.81201H22.1792C22.1761 7.83331 22.173 7.85406 22.17 7.87434C22.1328 8.12668 22.1062 8.30689 22.0642 8.58496H21.0746C20.4808 8.58496 20.2015 9.02151 20.2015 9.72327V10.1895C20.2015 10.86 20.5621 11.1534 21.0746 11.1534H21.6785V11.151L25.0011 11.1581H25.1756C25.6833 11.1581 25.7592 10.8076 25.7592 10.6378C25.7592 10.3789 25.5746 10.1324 25.264 10.1324H24.2258C23.4185 10.1324 22.9365 9.74752 22.9365 8.97848C22.9365 8.20944 23.4873 7.75099 24.5857 7.75099H26.9437C26.9368 7.79683 26.9303 7.84006 26.9241 7.88152C26.8908 8.10398 26.8651 8.27533 26.8255 8.52394H24.5591C24.0514 8.52394 23.9755 8.77664 23.9755 8.97848C23.9755 9.27733 24.1601 9.45336 24.4707 9.45336H25.5089C26.3162 9.45336 26.7982 9.97909 26.7982 10.6378C26.7982 11.5539 26.274 11.9263 25.149 11.9263ZM30.9948 17.372L31.055 17.3603V15.4717L31.0018 15.4561C30.7577 15.3841 30.6286 15.3716 30.5167 15.3645H30.5121C29.8541 15.3645 29.779 15.9489 29.779 16.3894C29.779 17.2476 30.1999 17.4276 30.5527 17.4276C30.7069 17.4276 30.7867 17.4135 30.9948 17.372ZM31.055 13.1137L31.1645 13.095H31.1637C31.4814 13.0426 31.8092 12.9878 32.1276 12.9299V17.469C32.1276 17.7874 32.011 17.9376 31.6832 18.0425C31.3272 18.1591 30.9729 18.2091 30.498 18.2091C29.373 18.2091 28.7268 17.5488 28.7268 16.3964C28.7268 15.5578 29.0053 14.5572 30.329 14.5572C30.5731 14.5572 30.8242 14.6299 30.9314 14.6612L30.9603 14.669L31.055 14.6964V13.1137ZM34.9331 17.4057L34.9886 17.3908H34.9878V16.6679H34.3299C33.8221 16.6679 33.7462 16.9527 33.7462 17.1225C33.7462 17.3822 33.9324 17.5371 34.2422 17.5371C34.3729 17.5371 34.5411 17.5105 34.7296 17.4596L34.9331 17.4057ZM33.1775 14.7715C33.7016 14.6088 34.1179 14.5368 34.527 14.5368C35.4956 14.5368 35.9861 14.9507 35.9861 15.7659V18.2866C35.7079 18.2323 35.4225 18.1817 35.1425 18.132C35.1036 18.1251 35.0648 18.1182 35.0261 18.1113L34.9268 18.0941L34.9111 18.091L34.8955 18.0949C34.5935 18.1692 34.2493 18.2162 33.9974 18.2162C33.19 18.2162 32.7081 17.8226 32.7081 17.1639C32.7081 16.3949 33.2322 16.0373 34.3572 16.0373H34.9753V15.8269C34.9753 15.345 34.5309 15.345 34.3846 15.345C34.0615 15.345 33.6289 15.4185 33.2815 15.532L32.9514 15.6399L32.8379 14.8748L33.1775 14.7715ZM27.0917 17.4057L27.1472 17.3908V16.6687H26.4885C25.9815 16.6687 25.9056 16.9535 25.9056 17.1232C25.9056 17.3822 26.0903 17.5371 26.4009 17.5371C26.5323 17.5371 26.7005 17.5097 26.8883 17.4596L27.0917 17.4057ZM25.3361 14.7715C25.8603 14.6096 26.2765 14.5368 26.6856 14.5368V14.5376C27.6534 14.5376 28.1447 14.9515 28.1447 15.7667V18.2874C27.8665 18.2331 27.5811 18.1824 27.3011 18.1328C27.2622 18.1259 27.2234 18.119 27.1848 18.1121L27.0854 18.0949L27.0698 18.0918L27.0541 18.0957C26.7529 18.17 26.4087 18.2169 26.156 18.2169C25.3486 18.2169 24.8667 17.8234 24.8667 17.1647C24.8667 16.3957 25.3909 16.0373 26.5159 16.0373H27.1339V15.8269C27.1339 15.3458 26.6888 15.3458 26.5432 15.3458C26.2194 15.3458 25.7867 15.4185 25.4409 15.532L25.1108 15.6399L24.9973 14.8748L25.3361 14.7715ZM21.7984 14.7887C21.9572 14.7152 22.382 14.5446 22.8936 14.5446V14.5439C23.8293 14.5439 24.2846 14.953 24.2846 15.7933V18.1755H23.2261V15.9012C23.2261 15.4983 22.9711 15.413 22.7575 15.413C22.5705 15.413 22.3937 15.449 22.2318 15.521L22.1598 15.5523L22.195 15.6227C22.2013 15.636 22.2279 15.7174 22.2279 15.8543V18.1755H21.1694V15.9012C21.1694 15.5773 21.0121 15.413 20.7015 15.413C20.5763 15.413 20.4488 15.4271 20.2306 15.4983L20.1789 15.5155V18.1763H19.1063V15.298C19.1063 14.9859 19.2401 14.8232 19.5836 14.7175C19.9841 14.5994 20.3526 14.5446 20.7422 14.5446C21.185 14.5446 21.5058 14.6221 21.7225 14.7817L21.7585 14.8075L21.7984 14.7887Z" fill="#231F20"/>
</svg>
