<svg width="48" height="32" viewBox="0 0 48 32" fill="none" xmlns="http://www.w3.org/2000/svg">
<g clip-path="url(#clip0_27614_236993)">
<path d="M0 4C0 1.79086 1.79086 0 4 0H43.4074C45.6165 0 47.4074 1.79086 47.4074 4V28C47.4074 30.2091 45.6165 32 43.4074 32H4C1.79086 32 0 30.2091 0 28V4Z" fill="url(#paint0_linear_27614_236993)"/>
<path d="M43.7359 25.7643H3.67154C1.64602 25.7643 0 24.055 0 21.9467V9.96656C0 7.86314 1.64602 6.15381 3.67154 6.15381H43.7359C45.7661 6.15381 47.4074 7.86314 47.4074 9.96656V21.9467C47.4074 24.055 45.7614 25.7643 43.7359 25.7643Z" fill="url(#paint1_linear_27614_236993)"/>
<path d="M41.0289 12.375L38.4958 22.429L38.4863 22.4487H40.4644L43.007 12.375H41.0289Z" fill="#292929"/>
<path d="M9.65426 18.0945C9.39336 18.2373 9.03759 18.3211 8.7008 18.3211C7.98926 18.3211 7.58606 18.2029 7.54337 17.6068V17.5674C7.54337 17.5428 7.53862 17.5181 7.53862 17.4935V15.7595L7.54337 15.5526V14.3261H7.53862V13.8039L7.54337 13.597V12.4148L5.77875 12.6561C6.97414 12.4148 7.65721 11.4345 7.65721 10.4591V9.85815H5.67439V12.6709L5.56055 12.7054V17.9171C5.62696 19.3802 6.5567 20.2521 8.07939 20.2521C8.62016 20.2521 9.21311 20.124 9.66849 19.9122L9.67798 19.9073V18.0797L9.65426 18.0945Z" fill="#292929"/>
<path d="M9.96657 11.9963L4.40234 12.888V14.351L9.96657 13.4594V11.9963Z" fill="#292929"/>
<path d="M9.96657 14.1394L4.40234 15.031V16.43L9.96657 15.5384V14.1394Z" fill="#292929"/>
<path d="M16.2032 14.8146C16.1225 13.189 15.1454 12.2235 13.5515 12.2235C12.636 12.2235 11.877 12.593 11.3647 13.2875C10.8524 13.9821 10.582 15.0018 10.582 16.2382C10.582 17.4747 10.8524 18.4993 11.3647 19.1889C11.877 19.8835 12.636 20.2529 13.5515 20.2529C15.1454 20.2529 16.1273 19.2825 16.2032 17.6471V20.1002H18.186V12.391L16.2032 12.7063V14.8146ZM16.3075 16.2382C16.3075 17.6816 15.577 18.6126 14.4528 18.6126C13.2906 18.6126 12.5981 17.7259 12.5981 16.2382C12.5981 14.7456 13.2906 13.8491 14.4528 13.8491C15.0173 13.8491 15.4916 14.0757 15.8189 14.5092C16.1368 14.9378 16.3075 15.5338 16.3075 16.2382Z" fill="#292929"/>
<path d="M23.9704 12.2229C22.3718 12.2229 21.3947 13.1884 21.3188 14.8189V10.149L19.3359 10.4643V20.0996H21.3188V17.6465C21.3947 19.2819 22.3766 20.2523 23.9704 20.2523C25.8394 20.2523 26.9541 18.7499 26.9541 16.2376C26.9541 13.7253 25.8394 12.2229 23.9704 12.2229ZM23.0691 18.612C21.9402 18.612 21.2144 17.681 21.2144 16.2376C21.2144 15.5332 21.3852 14.9372 21.703 14.5135C22.0303 14.08 22.5047 13.8534 23.0691 13.8534C24.2313 13.8534 24.9239 14.745 24.9239 16.2425C24.9239 17.7253 24.2313 18.612 23.0691 18.612Z" fill="#292929"/>
<path d="M32.3474 12.2229C30.7488 12.2229 29.7716 13.1884 29.6957 14.8189V10.149L27.7129 10.4643V20.0996H29.6957V17.6465C29.7716 19.2819 30.7535 20.2523 32.3474 20.2523C34.2163 20.2523 35.3311 18.7499 35.3311 16.2376C35.3311 13.7253 34.2163 12.2229 32.3474 12.2229ZM31.4508 18.612C30.3219 18.612 29.5961 17.681 29.5961 16.2376C29.5961 15.5332 29.7669 14.9372 30.0847 14.5135C30.412 14.08 30.8864 13.8534 31.4508 13.8534C32.613 13.8534 33.3056 14.745 33.3056 16.2426C33.3056 17.7253 32.613 18.612 31.4508 18.612Z" fill="#292929"/>
<path d="M35.3359 12.375H37.4516L39.1735 20.0892H37.2761L35.3359 12.375Z" fill="#292929"/>
</g>
<path d="M43.2778 32H4.12956C1.81701 32 0 30.1667 0 27.8333V4.16667C0 1.83333 1.81701 0 4.12956 0H43.2778C45.4252 0 47.4074 1.83333 47.4074 4.16667V27.8333C47.4074 30.1667 45.4252 32 43.2778 32ZM4.12956 0.333333C1.98219 0.333333 0.330365 2 0.330365 4.16667V27.8333C0.330365 30 1.98219 31.6667 4.12956 31.6667H43.2778C45.4252 31.6667 47.077 30 47.077 27.8333V4.16667C47.077 2 45.4252 0.333333 43.2778 0.333333C43.2778 0.333333 4.12956 0.333333 4.12956 0.333333Z" fill="#C4C4C4"/>
<defs>
<linearGradient id="paint0_linear_27614_236993" x1="0" y1="15.9987" x2="47.4079" y2="15.9987" gradientUnits="userSpaceOnUse">
<stop stop-color="#3BFF9D"/>
<stop offset="1" stop-color="#3BFFC8"/>
</linearGradient>
<linearGradient id="paint1_linear_27614_236993" x1="0" y1="15.9583" x2="47.4079" y2="15.9583" gradientUnits="userSpaceOnUse">
<stop stop-color="#3BFF9D"/>
<stop offset="1" stop-color="#3BFFC8"/>
</linearGradient>
<clipPath id="clip0_27614_236993">
<path d="M0 4C0 1.79086 1.79086 0 4 0H43.4074C45.6165 0 47.4074 1.79086 47.4074 4V28C47.4074 30.2091 45.6165 32 43.4074 32H4C1.79086 32 0 30.2091 0 28V4Z" fill="white"/>
</clipPath>
</defs>
</svg>
